<!DOCTYPE svg PUBLIC "-//W3C//DTD SVG 1.1//EN" "http://www.w3.org/Graphics/SVG/1.1/DTD/svg11.dtd"><svg xmlns="http://www.w3.org/2000/svg" xmlns:xlink="http://www.w3.org/1999/xlink"><symbol viewBox="0 0 32 32" id="svg-icon-app/source/svg/accessibility"><path d="M13 3c0-1.657 1.343-3 3-3s3 1.343 3 3-1.343 3-3 3-3-1.343-3-3zM20 10l10.3-4.443-.743-1.857L17 8h-2L2.443 3.7 1.7 5.557 12 10v8L7.898 31.268l1.87.71L15.572 19h.857l5.803 12.977 1.87-.71L20 18z"/></symbol><symbol viewBox="0 0 32 32" id="svg-icon-app/source/svg/address-book"><path d="M6 0v32h24V0H6zm12 8.01c2.203 0 3.99 1.786 3.99 3.99s-1.786 3.99-3.99 3.99-3.99-1.786-3.99-3.99S15.796 8.01 18 8.01zM24 24H12v-2c0-2.21 1.79-4 4-4h4c2.21 0 4 1.79 4 4v2zM2 2h3v6H2V2zM2 10h3v6H2v-6zM2 18h3v6H2v-6zM2 26h3v6H2v-6z" fill="#444"/></symbol><symbol viewBox="0 0 32 32" id="svg-icon-app/source/svg/aid-kit"><path d="M28 8h-6V4c0-1.1-.9-2-2-2h-8c-1.1 0-2 .9-2 2v4H4c-2.2 0-4 1.8-4 4v16c0 2.2 1.8 4 4 4h24c2.2 0 4-1.8 4-4V12c0-2.2-1.8-4-4-4zM12 4h8v4h-8V4zm12 18h-6v6h-4v-6H8v-4h6v-6h4v6h6v4z" fill="#444"/></symbol><symbol viewBox="0 0 32 32" id="svg-icon-app/source/svg/airplane"><path d="M24 20l-5.713-5.714L32 4l-4-4-17.14 6.858L5.46 1.46C3.906-.094 1.734-.466.634.634s-.727 3.273.828 4.828l5.396 5.397L0 28l4 4 10.287-13.715L20 23.998v8h4l2-6 6-2v-4h-8z" fill="#444"/></symbol><symbol viewBox="0 0 32 32" id="svg-icon-app/source/svg/alarm"><path d="M16 4C8.268 4 2 10.268 2 18s6.268 14 14 14 14-6.268 14-14S23.732 4 16 4zm0 25.25C9.787 29.25 4.75 24.213 4.75 18S9.787 6.75 16 6.75 27.25 11.787 27.25 18 22.213 29.25 16 29.25zM29.212 8.974C29.712 8.097 30 7.082 30 6c0-3.314-2.686-6-6-6-1.932 0-3.65.913-4.747 2.33 4.12.852 7.663 3.288 9.96 6.644zM12.748 2.33C11.65.914 9.932 0 8 0 4.686 0 2 2.686 2 6c0 1.082.287 2.098.788 2.974 2.297-3.356 5.838-5.792 9.96-6.643zM16 18v-8h-2v10h8v-2z" fill="#444"/></symbol><symbol viewBox="0 0 32 32" id="svg-icon-app/source/svg/android"><path d="M28 12c-1.1 0-2 .9-2 2v8c0 1.1.9 2 2 2s2-.9 2-2v-8c0-1.1-.9-2-2-2zM4 12c-1.1 0-2 .9-2 2v8c0 1.1.9 2 2 2s2-.9 2-2v-8c0-1.1-.9-2-2-2zm3 11c0 1.657 1.343 3 3 3v4c0 1.1.9 2 2 2s2-.9 2-2v-4h4v4c0 1.1.9 2 2 2s2-.9 2-2v-4c1.657 0 3-1.343 3-3V12H7v11zM24.944 10c-.304-2.746-1.844-5.12-4.05-6.55l1-2.002c.247-.494.047-1.095-.447-1.342S20.352.06 20.105.553L19.1 2.563l-.26-.105C17.947 2.16 16.992 2 16 2s-1.947.16-2.84.458l-.26.104-1.005-2.01c-.247-.493-.848-.693-1.342-.446s-.694.848-.447 1.342l1 2C8.9 4.883 7.36 7.255 7.057 10v1H25v-1h-.056zM13 8c-.552 0-1-.448-1-1s.447-1 .998-1h.006c.55 0 .998.448.998 1s-.447 1-1 1zm6 0c-.552 0-1-.448-1-1s.446-1 .998-1h.005c.55 0 .998.448.998 1s-.447 1-1 1z" fill="#444"/></symbol><symbol viewBox="0 0 32 32" id="svg-icon-app/source/svg/angry"><path d="M16 32c8.837 0 16-7.163 16-16S24.837 0 16 0 0 7.163 0 16s7.163 16 16 16zm0-29c7.18 0 13 5.82 13 13s-5.82 13-13 13S3 23.18 3 16 8.82 3 16 3zm6.003 21.398C20.78 22.362 18.55 21 16 21s-4.78 1.362-6.003 3.398l-2.573-1.544C9.174 19.946 12.36 18 16 18s6.827 1.945 8.576 4.854l-2.573 1.544zm1.967-15.64c.134.536-.192 1.08-.728 1.213-.55.14-1.204.38-1.78.668.334.357.538.836.538 1.363 0 1.106-.895 2-2 2s-2-.894-2-2c0-.036 0-.072.003-.108.064-1.483 1.413-2.467 2.55-3.036 1.086-.543 2.16-.814 2.205-.826.536-.134 1.08.192 1.213.728zm-15.94 0c.134-.536.677-.862 1.213-.728.045.01 1.12.283 2.205.826 1.137.57 2.486 1.553 2.55 3.036.002.036.003.072.003.11 0 1.104-.894 2-2 2s-2-.896-2-2c0-.528.205-1.006.538-1.364-.575-.288-1.228-.528-1.78-.667-.535-.133-.86-.676-.727-1.212z" fill="#444"/></symbol><symbol viewBox="0 0 32 32" id="svg-icon-app/source/svg/angry2"><path d="M16 0C7.163 0 0 7.163 0 16s7.163 16 16 16 16-7.163 16-16S24.837 0 16 0zm2.003 11.89c.064-1.482 1.413-2.466 2.55-3.035 1.086-.543 2.16-.814 2.205-.826.536-.135 1.08.19 1.213.727s-.19 1.08-.727 1.213c-.55.14-1.204.38-1.78.667.334.357.538.836.538 1.363 0 1.105-.894 2-2 2s-2-.895-2-2c0-.037.002-.073.004-.11zM8.03 8.76c.134-.536.677-.862 1.213-.728.045.01 1.12.283 2.205.826 1.137.57 2.486 1.553 2.55 3.036.002.036.003.072.003.11 0 1.104-.894 2-2 2s-2-.896-2-2c0-.528.205-1.006.538-1.364-.575-.288-1.228-.528-1.78-.667-.535-.133-.86-.676-.727-1.212zm13.973 15.64C20.78 22.362 18.55 21 16 21s-4.78 1.362-6.003 3.398l-2.573-1.544C9.174 19.946 12.36 18 16 18s6.827 1.945 8.576 4.854l-2.573 1.544z" fill="#444"/></symbol><symbol viewBox="0 0 32 32" id="svg-icon-app/source/svg/apple"><path d="M24.734 17.003c-.04-4.053 3.305-5.996 3.454-6.093-1.88-2.75-4.808-3.127-5.85-3.17-2.493-.253-4.863 1.466-6.128 1.466-1.26 0-3.213-1.43-5.28-1.392-2.716.04-5.22 1.58-6.62 4.012-2.82 4.897-.722 12.15 2.03 16.123 1.343 1.943 2.946 4.126 5.05 4.048 2.026-.08 2.793-1.31 5.242-1.31s3.138 1.31 5.283 1.27c2.18-.04 3.562-1.98 4.897-3.93 1.543-2.256 2.18-4.44 2.216-4.552-.048-.022-4.252-1.632-4.294-6.473zM20.704 5.11C21.823 3.755 22.577 1.875 22.37 0c-1.61.066-3.56 1.072-4.713 2.423-1.036 1.2-1.942 3.113-1.7 4.95 1.797.14 3.63-.912 4.748-2.263z" fill="#444"/></symbol><symbol viewBox="0 0 32 32" id="svg-icon-app/source/svg/arrow-down"><path d="M16 31l15-15h-9V0H10v16H1z" fill="#444"/></symbol><symbol viewBox="0 0 32 32" id="svg-icon-app/source/svg/arrow-down-left"><path d="M23 32l-8-8L32 7l-7-7L8 17 0 9v23h23z" fill="#444"/></symbol><symbol viewBox="0 0 32 32" id="svg-icon-app/source/svg/arrow-down-left2"><path d="M24.586 4.586L8 21.172V14c0-1.105-.895-2-2-2s-2 .895-2 2v12c0 .81.487 1.538 1.235 1.848.248.103.508.15.765.15V28h12c1.105 0 2-.895 2-2s-.895-2-2-2h-7.172L27.414 7.414c.39-.39.586-.902.586-1.414s-.195-1.024-.586-1.414c-.78-.78-2.047-.78-2.828 0z" fill="#444"/></symbol><symbol viewBox="0 0 32 32" id="svg-icon-app/source/svg/arrow-down-right"><path d="M32 9l-8 8L7 0 0 7l17 17-8 8h23V9z" fill="#444"/></symbol><symbol viewBox="0 0 32 32" id="svg-icon-app/source/svg/arrow-down-right2"><path d="M4.586 7.414L21.172 24h-7.17c-1.106 0-2 .895-2 2s.894 2 2 2h12c.808 0 1.537-.487 1.847-1.235.102-.248.15-.508.15-.765V14c0-1.105-.894-2-2-2s-2 .895-2 2v7.172L7.416 4.586C7.025 4.196 6.513 4 6 4s-1.023.195-1.413.586c-.78.78-.78 2.047 0 2.828z" fill="#444"/></symbol><symbol viewBox="0 0 32 32" id="svg-icon-app/source/svg/arrow-down2"><path d="M27.414 19.414l-10 10c-.78.78-2.047.78-2.828 0l-10-10c-.78-.78-.78-2.047 0-2.828s2.047-.78 2.828 0L14 23.172V4c0-1.105.895-2 2-2s2 .895 2 2v19.172l6.586-6.586c.39-.39.902-.586 1.414-.586s1.024.195 1.414.586c.78.78.78 2.047 0 2.828z" fill="#444"/></symbol><symbol viewBox="0 0 32 32" id="svg-icon-app/source/svg/arrow-left"><path d="M1 16l15 15v-9h16V10H16V1z" fill="#444"/></symbol><symbol viewBox="0 0 32 32" id="svg-icon-app/source/svg/arrow-left2"><path d="M12.586 27.414l-10-10c-.78-.78-.78-2.047 0-2.828l10-10c.78-.78 2.047-.78 2.828 0s.78 2.047 0 2.828L8.828 14H28c1.105 0 2 .895 2 2s-.895 2-2 2H8.828l6.586 6.586c.39.39.586.902.586 1.414s-.195 1.024-.586 1.414c-.78.78-2.047.78-2.828 0z" fill="#444"/></symbol><symbol viewBox="0 0 32 32" id="svg-icon-app/source/svg/arrow-right"><path d="M31 16L16 1v9H0v12h16v9z" fill="#444"/></symbol><symbol viewBox="0 0 32 32" id="svg-icon-app/source/svg/arrow-right2"><path d="M19.414 27.414l10-10c.78-.78.78-2.047 0-2.828l-10-10c-.78-.78-2.047-.78-2.828 0s-.78 2.047 0 2.828L23.172 14H4c-1.105 0-2 .895-2 2s.895 2 2 2h19.172l-6.586 6.586c-.39.39-.586.902-.586 1.414s.195 1.024.586 1.414c.78.78 2.047.78 2.828 0z" fill="#444"/></symbol><symbol viewBox="0 0 32 32" id="svg-icon-app/source/svg/arrow-up"><path d="M16 1L1 16h9v16h12V16h9z" fill="#444"/></symbol><symbol viewBox="0 0 32 32" id="svg-icon-app/source/svg/arrow-up2"><path d="M27.414 12.586l-10-10c-.78-.78-2.047-.78-2.828 0l-10 10c-.78.78-.78 2.047 0 2.828s2.047.78 2.828 0L14 8.828V28c0 1.105.895 2 2 2s2-.895 2-2V8.828l6.586 6.586c.39.39.902.586 1.414.586s1.024-.195 1.414-.586c.78-.78.78-2.047 0-2.828z" fill="#444"/></symbol></svg>