<!DOCTYPE svg PUBLIC "-//W3C//DTD SVG 1.1//EN" "http://www.w3.org/Graphics/SVG/1.1/DTD/svg11.dtd"><svg xmlns="http://www.w3.org/2000/svg" width="32" height="32" viewBox="0 0 32 32"><path d="M28 12c-1.1 0-2 .9-2 2v8c0 1.1.9 2 2 2s2-.9 2-2v-8c0-1.1-.9-2-2-2zM4 12c-1.1 0-2 .9-2 2v8c0 1.1.9 2 2 2s2-.9 2-2v-8c0-1.1-.9-2-2-2zm3 11c0 1.657 1.343 3 3 3v4c0 1.1.9 2 2 2s2-.9 2-2v-4h4v4c0 1.1.9 2 2 2s2-.9 2-2v-4c1.657 0 3-1.343 3-3V12H7v11zM24.944 10c-.304-2.746-1.844-5.12-4.05-6.55l1-2.002c.247-.494.047-1.095-.447-1.342S20.352.06 20.105.553L19.1 2.563l-.26-.105C17.947 2.16 16.992 2 16 2s-1.947.16-2.84.458l-.26.104-1.005-2.01c-.247-.493-.848-.693-1.342-.446s-.694.848-.447 1.342l1 2C8.9 4.883 7.36 7.255 7.057 10v1H25v-1h-.056zM13 8c-.552 0-1-.448-1-1s.447-1 .998-1h.006c.55 0 .998.448.998 1s-.447 1-1 1zm6 0c-.552 0-1-.448-1-1s.446-1 .998-1h.005c.55 0 .998.448.998 1s-.447 1-1 1z" fill="#444"/></svg>