<!DOCTYPE svg PUBLIC "-//W3C//DTD SVG 1.1//EN" "http://www.w3.org/Graphics/SVG/1.1/DTD/svg11.dtd"><svg xmlns="http://www.w3.org/2000/svg" width="32" height="32" viewBox="0 0 32 32"><path d="M16 0C7.163 0 0 7.163 0 16s7.163 16 16 16 16-7.163 16-16S24.837 0 16 0zm2.003 11.89c.064-1.482 1.413-2.466 2.55-3.035 1.086-.543 2.16-.814 2.205-.826.536-.135 1.08.19 1.213.727s-.19 1.08-.727 1.213c-.55.14-1.204.38-1.78.667.334.357.538.836.538 1.363 0 1.105-.894 2-2 2s-2-.895-2-2c0-.037.002-.073.004-.11zM8.03 8.76c.134-.536.677-.862 1.213-.728.045.01 1.12.283 2.205.826 1.137.57 2.486 1.553 2.55 3.036.002.036.003.072.003.11 0 1.104-.894 2-2 2s-2-.896-2-2c0-.528.205-1.006.538-1.364-.575-.288-1.228-.528-1.78-.667-.535-.133-.86-.676-.727-1.212zm13.973 15.64C20.78 22.362 18.55 21 16 21s-4.78 1.362-6.003 3.398l-2.573-1.544C9.174 19.946 12.36 18 16 18s6.827 1.945 8.576 4.854l-2.573 1.544z" fill="#444"/></svg>