<!DOCTYPE svg PUBLIC "-//W3C//DTD SVG 1.1//EN" "http://www.w3.org/Graphics/SVG/1.1/DTD/svg11.dtd"><svg xmlns="http://www.w3.org/2000/svg" width="32" height="32" viewBox="0 0 32 32"><path d="M16 32c8.837 0 16-7.163 16-16S24.837 0 16 0 0 7.163 0 16s7.163 16 16 16zm0-29c7.18 0 13 5.82 13 13s-5.82 13-13 13S3 23.18 3 16 8.82 3 16 3zm6.003 21.398C20.78 22.362 18.55 21 16 21s-4.78 1.362-6.003 3.398l-2.573-1.544C9.174 19.946 12.36 18 16 18s6.827 1.945 8.576 4.854l-2.573 1.544zm1.967-15.64c.134.536-.192 1.08-.728 1.213-.55.14-1.204.38-1.78.668.334.357.538.836.538 1.363 0 1.106-.895 2-2 2s-2-.894-2-2c0-.036 0-.072.003-.108.064-1.483 1.413-2.467 2.55-3.036 1.086-.543 2.16-.814 2.205-.826.536-.134 1.08.192 1.213.728zm-15.94 0c.134-.536.677-.862 1.213-.728.045.01 1.12.283 2.205.826 1.137.57 2.486 1.553 2.55 3.036.002.036.003.072.003.11 0 1.104-.894 2-2 2s-2-.896-2-2c0-.528.205-1.006.538-1.364-.575-.288-1.228-.528-1.78-.667-.535-.133-.86-.676-.727-1.212z" fill="#444"/></svg>